<?xml version="1.0" standalone="no"?><!DOCTYPE svg PUBLIC "-//W3C//DTD SVG 1.1//EN" "http://www.w3.org/Graphics/SVG/1.1/DTD/svg11.dtd"><svg t="1687795237824" class="icon" viewBox="0 0 1024 1024" version="1.1" xmlns="http://www.w3.org/2000/svg" p-id="12263" xmlns:xlink="http://www.w3.org/1999/xlink" width="48" height="48"><path d="M379.904 144.512c-41.536 0-75.84 34.432-75.84 76.992s33.28 76.928 75.84 76.928c41.536 0 75.84-34.368 75.84-76.928 0-42.56-33.28-76.992-75.84-76.992zM221.056 355.2a76.672 76.672 0 0 0-75.904 76.8c0 42.688 33.28 76.992 75.904 76.992 40.96 0 75.84-34.304 75.84-76.928a75.776 75.776 0 0 0-75.84-76.864zM510.336 0C228.096 0 0 230.144 0 512.256c0 282.048 229.248 511.68 510.336 511.68a114.048 114.048 0 0 0 113.536-113.472c0-27.84-9.856-55.552-27.904-73.728-9.856-11.84-12.544-20.16-12.544-29.888 0-25.088 20.8-45.888 45.888-45.888h95.552c164.864 0 299.136-135.872 299.136-301.632C1020.16 206.08 790.272 0 510.336 0z m223.232 699.968H634.24a117.888 117.888 0 0 0-117.376 117.184c0 34.88 15.872 58.88 27.328 74.752l2.752 4.416c6.72 8.128 10.4 18.368 10.368 28.928 0 25.6-21.312 47.36-47.424 47.36-254.336 0-459.648-207.232-459.648-460.928S257.088 51.2 509.76 51.2c253.248 0 460.16 183.872 465.088 406.4 0 133.12-109.184 242.368-241.28 242.368zM641.792 144.512c-41.408 0-75.84 34.432-75.84 76.992s33.28 76.928 75.84 76.928c41.536 0 75.968-34.368 75.968-76.928 0-42.56-33.28-76.992-75.968-76.992z m158.976 210.688a76.672 76.672 0 0 0-75.904 76.8c0 42.688 33.28 76.992 75.904 76.992a76.736 76.736 0 0 0 75.84-76.928 75.84 75.84 0 0 0-75.84-76.864z" fill="#1296db" p-id="12264"></path></svg>